<svg width="160" height="40" viewBox="0 0 160 40" fill="none" xmlns="http://www.w3.org/2000/svg">
<path d="M5.50116 2.23592C6.06827 2.23319 6.58046 2.34085 7.03746 2.55617C7.49717 2.77423 7.87454 3.08361 8.17166 3.48917C8.46909 3.89231 8.65641 4.37529 8.73906 4.93569H4.50994V6.98946H8.6893C8.59035 7.53866 8.39216 8.01076 8.08629 8.40814C7.78343 8.80584 7.40366 9.11492 6.94667 9.33025C6.48665 9.54557 5.98018 9.65325 5.41851 9.65596C4.9422 9.65596 4.49909 9.57582 4.09156 9.41856C3.68404 9.2613 3.33442 9.02933 3.03972 8.71724C2.745 8.40543 2.53022 8.0162 2.39538 7.55259H0C0.104658 8.15986 0.280836 8.7009 0.528783 9.17269C0.776445 9.64206 1.07657 10.0506 1.43463 10.3903C1.78967 10.7323 2.18332 11.0111 2.61559 11.2319C3.04786 11.4503 3.50213 11.613 3.97843 11.7179C4.45203 11.8228 4.93406 11.8752 5.41851 11.8752C6.02965 11.8752 6.6245 11.7923 7.19975 11.6296C7.77801 11.4639 8.31495 11.221 8.81326 10.898C9.31159 10.5778 9.74928 10.1776 10.1266 9.70012C10.5037 9.22258 10.7984 8.67036 11.0105 8.04371C11.2222 7.41709 11.3296 6.7188 11.3326 5.94609C11.3296 5.17581 11.2252 4.47751 11.0186 3.85087C10.812 3.22153 10.523 2.66927 10.1541 2.18903C9.78789 1.70878 9.35835 1.30595 8.86546 0.980243C8.37557 0.654516 7.84679 0.408628 7.27426 0.243207C6.70444 0.0774826 6.1123 -0.00265973 5.50116 6.72923e-05C5.03029 6.72923e-05 4.55941 0.0526799 4.09427 0.157626C3.62883 0.262268 3.18299 0.422562 2.75616 0.637889C2.32661 0.853217 1.93568 1.12631 1.58334 1.45474C1.228 1.78621 0.925155 2.17542 0.674773 2.62513C0.424106 3.07241 0.245228 3.58323 0.13241 4.15724H2.5275C2.69552 3.72658 2.92146 3.3679 3.21043 3.08361C3.49941 2.79904 3.83547 2.58672 4.22368 2.44579C4.61191 2.30516 5.03572 2.23592 5.50116 2.23592ZM25.5195 0.149159H23.058V11.7427H25.5195V7.08866C25.6489 7.08866 25.7946 7.08866 25.9572 7.08593C26.1167 7.08593 26.2848 7.08049 26.4528 7.07505C26.6208 7.06659 26.7831 7.05569 26.9372 7.03904C27.0887 7.02242 27.2238 7.00035 27.3366 6.97283L30.2439 11.7427H33.0357V11.3783L29.5007 6.01232C29.7347 5.77491 29.9411 5.50151 30.1172 5.19243C30.2907 4.88034 30.4451 4.53828 30.5799 4.15994C30.7148 3.78192 30.8415 3.37334 30.9543 2.93179C31.0369 2.63906 31.1471 2.40981 31.2903 2.24439C31.4333 2.07593 31.6152 1.96283 31.8354 1.90203C32.0529 1.84125 32.3144 1.8246 32.6227 1.85515V0.165785C31.9896 0.0360471 31.4445 6.39463e-05 30.9875 0.0581334C30.5332 0.116203 30.1504 0.243217 29.8421 0.444642C29.5362 0.646049 29.2886 0.897362 29.1013 1.20101C28.9142 1.50465 28.771 1.83852 28.6747 2.20294C28.5728 2.63905 28.4708 3.02553 28.3719 3.36215C28.2699 3.69905 28.1544 3.98333 28.0193 4.20985C27.8871 4.43879 27.7191 4.60996 27.5182 4.72036C27.3614 4.79505 27.1713 4.85009 26.9511 4.87761C26.7309 4.90816 26.4968 4.92752 26.2519 4.93023C26.0039 4.93568 25.759 4.9384 25.5195 4.93569V0.149159ZM43.7204 5.96241C43.7231 6.72997 43.8332 7.42828 44.0425 8.05218C44.2546 8.6761 44.549 9.2226 44.9264 9.6974C45.3034 10.1722 45.7414 10.5696 46.2397 10.8899C46.7381 11.2098 47.2747 11.453 47.853 11.613C48.4285 11.776 49.0231 11.8585 49.6345 11.8585C50.119 11.8585 50.598 11.8062 51.0716 11.7013C51.5452 11.5963 51.994 11.4336 52.4236 11.2129C52.8528 10.9945 53.241 10.7133 53.5937 10.3709C53.946 10.0286 54.2434 9.61997 54.4856 9.14789C54.7279 8.67307 54.9013 8.13203 55.0033 7.51931H52.6244C52.4896 7.98868 52.2776 8.37791 51.9883 8.68699C51.6993 8.99607 51.3524 9.2253 50.9476 9.37712C50.5431 9.53167 50.0996 9.60607 49.6179 9.60607C49.1003 9.60334 48.6321 9.50685 48.2137 9.31634C47.7981 9.1258 47.44 8.8636 47.1426 8.52973C46.8455 8.19553 46.6141 7.80934 46.4572 7.37022C46.2974 6.9314 46.2177 6.46203 46.2147 5.96241C46.2177 5.41049 46.2974 4.90816 46.4599 4.45542C46.6222 4.00541 46.8563 3.61618 47.1565 3.29047C47.4566 2.96203 47.8174 2.71345 48.2358 2.53683C48.6542 2.3602 49.1196 2.2719 49.6345 2.26917C50.331 2.26644 50.9313 2.41555 51.4323 2.72192C51.9334 3.02827 52.3162 3.5058 52.575 4.15724H54.9701C54.8627 3.58323 54.6838 3.07515 54.4362 2.62816C54.1882 2.18086 53.8881 1.79437 53.5357 1.46864C53.1807 1.1402 52.7925 0.872561 52.3656 0.65996C51.9415 0.447342 51.4957 0.290089 51.033 0.18787C50.5705 0.0829244 50.1024 0.0333195 49.6345 0.0333195C49.0231 0.0248533 48.4285 0.0995556 47.853 0.259541C47.2747 0.419829 46.7381 0.662675 46.2397 0.988403C45.7414 1.31139 45.3034 1.71422 44.9264 2.19479C44.549 2.67504 44.2546 3.22969 44.0425 3.85904C43.8332 4.48838 43.7231 5.18972 43.7204 5.96241ZM66.6294 0.149159V11.7427C67.4553 11.7427 68.2812 11.7427 69.1071 11.7427V2.40164H73.5179V11.7427C74.3441 11.7427 75.17 11.7427 75.9959 11.7427V0.149159H66.6294ZM95.4526 0.149159H88.3656V11.7427H95.5847V9.49023H90.86V6.84037H95.1551V4.67075H90.86V2.31877H95.4526V0.149159ZM110.003 11.7427V8.44685H112.464C113.125 8.44141 113.711 8.33104 114.223 8.10995C114.733 7.88919 115.162 7.591 115.512 7.20751C115.862 6.82645 116.126 6.39307 116.308 5.90465C116.487 5.41322 116.577 4.89969 116.577 4.35593C116.577 3.91709 116.52 3.48916 116.41 3.07786C116.296 2.66384 116.129 2.28036 115.906 1.9241C115.683 1.56815 115.405 1.25604 115.074 0.988403C114.744 0.720745 114.361 0.510875 113.926 0.361762C113.491 0.212667 113.004 0.135563 112.464 0.132533C111.638 0.132533 110.815 0.129802 109.994 0.127075C109.174 0.124366 108.351 0.12437 107.525 0.132533V11.7427H110.003ZM109.953 6.32684V2.30245C110.374 2.29942 110.793 2.29943 111.209 2.2967C111.624 2.29126 112.043 2.29397 112.464 2.30245C112.737 2.30516 112.982 2.35748 113.199 2.4597C113.414 2.56465 113.599 2.708 113.75 2.8931C113.901 3.07515 114.017 3.28503 114.094 3.52515C114.174 3.76256 114.215 4.01932 114.215 4.2897C114.215 4.56854 114.174 4.83074 114.091 5.07631C114.009 5.32219 113.89 5.53752 113.736 5.72502C113.582 5.91283 113.397 6.05919 113.183 6.16414C112.971 6.27179 112.728 6.32413 112.464 6.32684H109.953ZM130.07 2.30245V11.7427H132.465V2.30245H135.538V0.149159H126.981V2.30245H130.07ZM149.279 0.149159H146.867V11.7427H151.757C152.365 11.74 152.908 11.6462 153.387 11.4611C153.866 11.2791 154.276 11.025 154.62 10.7048C154.964 10.3818 155.24 10.0119 155.444 9.59518C155.647 9.17843 155.779 8.73114 155.837 8.25905C155.889 7.80934 155.876 7.36749 155.793 6.93412C155.713 6.50074 155.565 6.09215 155.353 5.71141C155.141 5.33035 154.865 4.99375 154.527 4.701C154.185 4.40855 153.786 4.1793 153.323 4.01358C152.861 3.84816 152.338 3.76257 151.757 3.75984H149.279V0.427988C149.279 0.386566 149.279 0.342426 149.279 0.29555C149.279 0.248674 149.279 0.198763 149.279 0.149159ZM151.757 5.94609C152.046 5.94882 152.305 6.00385 152.528 6.11423C152.751 6.22765 152.938 6.37643 153.087 6.56697C153.235 6.75749 153.345 6.97554 153.412 7.21568C153.478 7.45853 153.5 7.71257 153.475 7.97477C153.414 8.52427 153.205 8.92711 152.844 9.18659C152.481 9.44608 151.982 9.57582 151.344 9.57309C150.997 9.57309 150.65 9.57039 150.306 9.56493C149.959 9.55919 149.618 9.55647 149.279 9.55647V5.94609H151.509C151.592 5.94609 151.674 5.94609 151.757 5.94609ZM160 0.149159H157.539V11.7427H160V0.149159ZM3.27108 28.2077H0.809618V39.8013H3.27108V35.1472C3.40048 35.1472 3.54617 35.1473 3.70876 35.1445C3.86834 35.1445 4.03636 35.1391 4.20438 35.1337C4.37239 35.1252 4.53469 35.1143 4.68882 35.0977C4.84025 35.081 4.97539 35.059 5.08821 35.0314L7.9955 39.8013H10.7873V39.4369L7.25223 34.0709C7.48631 33.8335 7.69264 33.5601 7.8688 33.251C8.04226 32.9389 8.19669 32.5969 8.33154 32.2186C8.46636 31.8405 8.59307 31.4319 8.70589 30.9904C8.78853 30.6976 8.89863 30.4684 9.04192 30.303C9.18491 30.1345 9.36679 30.0214 9.587 29.9606C9.80448 29.8998 10.066 29.8832 10.3743 29.9137V28.2244C9.74114 28.0947 9.19605 28.0587 8.73906 28.1167C8.28478 28.1748 7.90199 28.3018 7.59371 28.5032C7.28782 28.7046 7.04018 28.9559 6.85285 29.2596C6.66583 29.5632 6.52254 29.8971 6.42633 30.2615C6.32436 30.6976 6.2224 31.0842 6.12347 31.4208C6.02151 31.7577 5.90597 32.0419 5.77084 32.2684C5.63872 32.4974 5.4707 32.6686 5.2698 32.7789C5.11294 32.8536 4.9229 32.9087 4.7027 32.9362C4.48249 32.9668 4.24841 32.9861 4.00349 32.9888C3.75552 32.9943 3.51058 32.997 3.27108 32.9943V28.2077ZM27.7734 39.8013V36.5055H30.2349C30.8958 36.5 31.4822 36.3896 31.9941 36.1685C32.5036 35.9478 32.9331 35.6496 33.2827 35.2661C33.6323 34.8851 33.8966 34.4517 34.0785 33.9632C34.2574 33.4718 34.3481 32.9583 34.3481 32.4145C34.3481 31.9757 34.2905 31.5478 34.1804 31.1365C34.0673 30.7224 33.8996 30.339 33.6764 29.9827C33.4535 29.6267 33.1753 29.3146 32.845 29.047C32.5147 28.7793 32.1319 28.5695 31.697 28.4204C31.262 28.2713 30.7745 28.1942 30.2349 28.1911C29.4089 28.1911 28.5857 28.1884 27.7653 28.1857C26.9448 28.183 26.1216 28.183 25.2957 28.1911V39.8013H27.7734ZM27.7239 34.3854V30.3611C28.1451 30.358 28.5637 30.358 28.9794 30.3553C29.3951 30.3499 29.8138 30.3526 30.2349 30.3611C30.5076 30.3638 30.7525 30.4161 30.97 30.5183C31.1848 30.6233 31.3694 30.7666 31.5208 30.9517C31.6722 31.1337 31.7878 31.3436 31.8647 31.5838C31.9446 31.8212 31.9859 32.0779 31.9859 32.3483C31.9859 32.6271 31.9446 32.8893 31.862 33.1349C31.7796 33.3808 31.6611 33.5961 31.5069 33.7836C31.3528 33.9714 31.1682 34.1178 30.9534 34.2227C30.7416 34.3304 30.4991 34.3827 30.2349 34.3854H27.7239ZM55.7945 37.88L56.703 39.8013H59.2638V39.4701L53.9774 28.1086H52.8374L47.5181 39.4701V39.8013H50.0954L50.9874 37.88H55.7945ZM53.3991 31.9675L55.0017 35.7932H51.7967L53.3991 31.9675ZM72.7312 34.021C72.7339 34.7886 72.844 35.4869 73.0533 36.1108C73.2654 36.7347 73.5598 37.2812 73.9372 37.756C74.3142 38.2308 74.7522 38.6282 75.2505 38.9485C75.7489 39.2684 76.2855 39.5116 76.8638 39.6716C77.4393 39.8346 78.0339 39.9171 78.6453 39.9171C79.1297 39.9171 79.6088 39.8648 80.0824 39.7599C80.5559 39.6549 81.0048 39.4922 81.4343 39.2714C81.8636 39.0531 82.2518 38.7718 82.6044 38.4295C82.9568 38.0871 83.2542 37.6786 83.4964 37.2065C83.7386 36.7317 83.9121 36.1906 84.014 35.5779H81.6352C81.5004 36.0473 81.2883 36.4365 80.9991 36.7456C80.7101 37.0547 80.3632 37.2839 79.9584 37.4357C79.5538 37.5903 79.1104 37.6647 78.6287 37.6647C78.1111 37.6619 77.6429 37.5655 77.2245 37.3749C76.8089 37.1844 76.4508 36.9222 76.1534 36.5883C75.8562 36.2541 75.6249 35.8679 75.468 35.4288C75.3081 34.99 75.2285 34.5206 75.2255 34.021C75.2285 33.4691 75.3081 32.9668 75.4707 32.514C75.633 32.064 75.8671 31.6748 76.1672 31.3491C76.4674 31.0206 76.8282 30.772 77.2465 30.5954C77.6649 30.4188 78.1304 30.3305 78.6453 30.3278C79.3418 30.325 79.9421 30.4742 80.4431 30.7805C80.9442 31.0869 81.327 31.5644 81.5858 32.2158H83.9809C83.8735 31.6418 83.6946 31.1337 83.4469 30.6868C83.199 30.2395 82.8988 29.853 82.5465 29.5273C82.1915 29.1988 81.8033 28.9312 81.3764 28.7186C80.9523 28.5059 80.5065 28.3487 80.0437 28.2465C79.5813 28.1415 79.1132 28.0919 78.6453 28.0919C78.0339 28.0835 77.4393 28.1582 76.8638 28.3181C76.2855 28.4784 75.7489 28.7213 75.2505 29.047C74.7522 29.37 74.3142 29.7728 73.9372 30.2534C73.5598 30.7336 73.2654 31.2883 73.0533 31.9176C72.844 32.547 72.7339 33.2483 72.7312 34.021ZM109.97 34.0047C109.967 33.2262 109.86 32.5195 109.648 31.8874C109.439 31.2553 109.147 30.7004 108.77 30.2174C108.395 29.7371 107.96 29.334 107.465 29.0083C106.969 28.6826 106.435 28.4397 105.862 28.274C105.29 28.1086 104.698 28.0257 104.089 28.0257C103.473 28.0257 102.872 28.1086 102.291 28.2713C101.713 28.437 101.174 28.6799 100.675 29.0056C100.174 29.3286 99.7363 29.7314 99.3619 30.2119C98.9846 30.6922 98.6929 31.2499 98.4808 31.8819C98.2688 32.514 98.1614 33.2235 98.1587 34.0047C98.1614 34.7859 98.2661 35.495 98.4727 36.1301C98.6817 36.7622 98.9683 37.3226 99.3399 37.8029C99.7088 38.2859 100.141 38.689 100.634 39.0147C101.129 39.3404 101.664 39.586 102.242 39.7517C102.82 39.9171 103.417 40 104.04 40C104.918 39.9973 105.719 39.8482 106.443 39.5585C107.167 39.2684 107.792 38.8571 108.318 38.3245C108.844 37.7917 109.251 37.1596 109.535 36.431C109.821 35.6995 109.967 34.8905 109.97 34.0047ZM100.653 34.0047C100.656 33.3917 100.75 32.8537 100.934 32.3924C101.118 31.9315 101.369 31.5478 101.691 31.2387C102.01 30.9296 102.374 30.6976 102.787 30.5431C103.197 30.3886 103.632 30.3111 104.089 30.3111C104.543 30.3111 104.976 30.3886 105.383 30.5404C105.793 30.6949 106.157 30.9239 106.474 31.2332C106.793 31.5396 107.043 31.9234 107.228 32.387C107.412 32.8479 107.506 33.3862 107.509 34.0047C107.506 34.6368 107.41 35.1887 107.225 35.6553C107.041 36.1244 106.787 36.5109 106.465 36.8173C106.146 37.1266 105.78 37.3529 105.37 37.5047C104.959 37.6565 104.527 37.7312 104.073 37.7312C103.607 37.7312 103.17 37.6565 102.757 37.5047C102.346 37.3529 101.983 37.1266 101.669 36.8173C101.355 36.5109 101.107 36.1244 100.928 35.6553C100.747 35.1887 100.656 34.6368 100.653 34.0047ZM126.907 30.3611V39.8013H129.302V30.3611H132.375V28.2077H123.818V30.3611H126.907ZM149.278 28.2077H146.866V39.8013H151.756C152.364 39.7986 152.907 39.7048 153.386 39.5197C153.865 39.3377 154.275 39.0837 154.619 38.7634C154.963 38.4404 155.239 38.0705 155.443 37.6538C155.646 37.237 155.778 36.7897 155.836 36.3176C155.889 35.8679 155.875 35.4261 155.792 34.9927C155.712 34.5593 155.564 34.1508 155.352 33.77C155.14 33.3889 154.864 33.0523 154.526 32.7596C154.184 32.4671 153.785 32.2379 153.322 32.0722C152.86 31.9067 152.337 31.8212 151.756 31.8184H149.278V28.4866C149.278 28.4452 149.278 28.401 149.278 28.3541C149.278 28.3073 149.278 28.2574 149.278 28.2077ZM151.756 34.0047C152.045 34.0074 152.304 34.0625 152.527 34.1728C152.75 34.2862 152.937 34.435 153.086 34.6256C153.234 34.8161 153.344 35.0341 153.411 35.2743C153.477 35.5171 153.499 35.7712 153.474 36.0334C153.413 36.5829 153.204 36.9857 152.843 37.2452C152.48 37.5047 151.982 37.6344 151.343 37.6317C150.996 37.6317 150.649 37.629 150.305 37.6235C149.958 37.6178 149.617 37.6151 149.278 37.6151V34.0047H151.508C151.591 34.0047 151.673 34.0047 151.756 34.0047ZM159.999 28.2077H157.538V39.8013H159.999V28.2077Z" fill="#242726"/>
<path d="M25.4356 19.4481L25.4024 20.3645V21.4145H25.8775V18.5124H25.7041L23.9491 20.4595L23.982 19.5749V18.5206H23.5029V21.4188H23.6682L25.4356 19.4481ZM34.6989 20.011L33.5222 18.5124H33.3445V21.4188H33.8278V19.6054L34.666 20.6775H34.7321L35.5662 19.6054V21.4188H36.0494V18.5124H35.8717L34.6989 20.011ZM45.4491 19.4481L45.4159 20.3645V21.4145H45.891V18.5124H45.7176L43.9626 20.4595L43.9954 19.5749V18.5206H43.5164V21.4188H43.6817L45.4491 19.4481ZM54.2087 18.9389H55.1172V21.0171H53.8579C53.8983 20.9875 53.9315 20.9482 53.9556 20.8992C53.9794 20.8502 53.9975 20.7985 54.009 20.7431C54.0217 20.6881 54.0304 20.6355 54.0352 20.5865L54.2087 18.9389ZM53.098 21.0047V21.8494H53.5481V21.4188C53.7167 21.4188 53.879 21.4188 54.0358 21.4188C54.1921 21.4188 54.3471 21.4188 54.4992 21.4188C54.6521 21.4188 54.8062 21.4188 54.9625 21.4188C55.1179 21.4188 55.2804 21.4188 55.4476 21.4188V21.8494H55.8937V21.0047H55.5839V18.5206C55.4442 18.5206 55.2982 18.5206 55.1468 18.5206C54.996 18.5206 54.8427 18.5206 54.6877 18.5206C54.5329 18.5206 54.3794 18.5206 54.2286 18.5206C54.0772 18.5206 53.9315 18.5206 53.7915 18.5206L53.552 20.5659C53.5444 20.6376 53.5342 20.7005 53.5212 20.7549C53.5079 20.8094 53.4889 20.8556 53.4639 20.8922C53.4401 20.9294 53.4054 20.9579 53.3629 20.9763C53.3203 20.9951 53.2645 21.0047 53.1969 21.0047H53.098ZM66.8625 21.4188V21.3483C66.7036 21.1184 66.5446 20.888 66.3862 20.6563C66.2273 20.425 66.0698 20.1933 65.913 19.9614C65.9754 19.9042 66.0285 19.8343 66.0719 19.753C66.1151 19.6716 66.1531 19.5824 66.1847 19.4853C66.2158 19.388 66.2454 19.2872 66.2722 19.1829C66.3126 19.0514 66.3727 18.9588 66.4517 18.9062C66.5316 18.8545 66.6369 18.8388 66.7675 18.8602V18.5288C66.6086 18.4964 66.4668 18.491 66.3422 18.513C66.2185 18.5351 66.1138 18.5902 66.0297 18.6772C65.9452 18.764 65.8846 18.8883 65.8469 19.0505C65.8336 19.1031 65.8179 19.1608 65.8008 19.2231C65.7826 19.2858 65.7615 19.348 65.7359 19.4094C65.7105 19.4714 65.6801 19.528 65.6445 19.5791C65.6086 19.6302 65.5661 19.671 65.5163 19.7007C65.4551 19.7352 65.3917 19.7572 65.3257 19.7681C65.2605 19.7793 65.1875 19.7841 65.1076 19.7832V18.5206C65.0291 18.5206 64.9507 18.5206 64.8714 18.5206C64.7929 18.5206 64.7133 18.5206 64.6328 18.5206V19.7832C64.5528 19.7841 64.4804 19.7793 64.4144 19.7681C64.3483 19.7572 64.285 19.7352 64.2237 19.7007C64.1749 19.671 64.1323 19.6302 64.0964 19.5791C64.0608 19.528 64.0298 19.4714 64.0044 19.4094C63.9794 19.348 63.9574 19.2858 63.9402 19.2231C63.9224 19.1608 63.9067 19.1031 63.8934 19.0505C63.8548 18.8883 63.793 18.764 63.7091 18.6772C63.6249 18.5902 63.5212 18.5351 63.3966 18.513C63.2726 18.491 63.1314 18.4964 62.9725 18.5288V18.8602C63.1061 18.8388 63.212 18.8545 63.2913 18.9062C63.3704 18.9588 63.4283 19.0514 63.4639 19.1829C63.4922 19.2872 63.5224 19.388 63.555 19.4853C63.5866 19.5824 63.6243 19.6716 63.6684 19.753C63.7118 19.8343 63.7646 19.9042 63.8274 19.9614C63.6684 20.1933 63.5094 20.425 63.3511 20.6563C63.1927 20.888 63.0346 21.1184 62.8775 21.3483V21.4188H63.4228C63.561 21.2077 63.6994 20.9966 63.837 20.7861C63.9755 20.575 64.1124 20.3651 64.2488 20.1561C64.31 20.1782 64.3712 20.1939 64.4331 20.2021C64.4949 20.2106 64.561 20.2145 64.6328 20.2139V21.4188C64.7133 21.4188 64.7929 21.4188 64.8714 21.4188C64.9507 21.4188 65.0291 21.4188 65.1076 21.4188V20.2139C65.179 20.2145 65.246 20.2106 65.3078 20.2021C65.3697 20.1939 65.4324 20.1782 65.4958 20.1561C65.63 20.3651 65.7663 20.575 65.9039 20.7861C66.0409 20.9966 66.1793 21.2077 66.3175 21.4188H66.8625ZM73.9498 20.2348H75.3416V19.8455H73.9498V20.2348ZM82.5444 19.9716C82.545 20.1588 82.5712 20.3291 82.6213 20.4837C82.6723 20.6382 82.7432 20.7749 82.834 20.8944C82.9257 21.0144 83.033 21.1151 83.1555 21.1974C83.278 21.2793 83.4116 21.3413 83.5567 21.3837C83.7012 21.4263 83.8526 21.4478 84.0104 21.4478C84.128 21.4478 84.2442 21.4354 84.3591 21.4097C84.4743 21.3843 84.5844 21.3456 84.6888 21.2933C84.7929 21.2406 84.8885 21.1744 84.976 21.0937C85.0625 21.0129 85.137 20.917 85.1989 20.8066C85.2607 20.6969 85.3063 20.5708 85.3358 20.4292H84.8692C84.8257 20.5574 84.7618 20.6645 84.6779 20.7507C84.5941 20.8363 84.4948 20.9013 84.3805 20.944C84.2671 20.9875 84.1431 21.009 84.0104 21.009C83.8623 21.0081 83.728 20.9812 83.6077 20.9282C83.4873 20.875 83.3839 20.8012 83.2973 20.7065C83.2113 20.6122 83.1444 20.5024 83.0976 20.3769C83.0514 20.252 83.0282 20.1165 83.0273 19.9716C83.0282 19.8165 83.0514 19.675 83.0976 19.5467C83.1444 19.4191 83.2113 19.3087 83.2973 19.2147C83.3839 19.1215 83.4873 19.0498 83.6077 18.9993C83.728 18.9485 83.8623 18.9228 84.0104 18.9222C84.1377 18.9234 84.2568 18.9428 84.3669 18.9815C84.4761 19.0196 84.5733 19.0774 84.6571 19.1554C84.7413 19.2334 84.8079 19.332 84.8568 19.4521H85.3192C85.2885 19.3211 85.2417 19.2038 85.179 19.1003C85.1171 18.996 85.0426 18.9056 84.9567 18.8285C84.8707 18.7511 84.7763 18.6869 84.6743 18.6358C84.5721 18.5847 84.4647 18.5469 84.3524 18.5212C84.2408 18.4958 84.128 18.4834 84.0143 18.4834C83.8562 18.4834 83.7039 18.5055 83.5588 18.5481C83.4134 18.5911 83.2795 18.6537 83.1561 18.7371C83.033 18.82 82.9263 18.9222 82.8349 19.0423C82.7431 19.163 82.6723 19.3012 82.6213 19.4563C82.5712 19.6115 82.545 19.7832 82.5444 19.971V19.9716ZM93.1579 18.947V21.4188H93.6288V18.947H94.467V18.5206H92.3196V18.947H93.1579ZM102.227 20.7646C102.184 20.8599 102.133 20.9331 102.076 20.9842C102.019 21.035 101.953 21.0634 101.878 21.0676C101.802 21.0725 101.714 21.0531 101.616 21.009L101.55 21.3855C101.707 21.4472 101.845 21.4774 101.964 21.4774C102.084 21.4774 102.188 21.4511 102.278 21.3994C102.368 21.3477 102.447 21.2751 102.515 21.1813C102.584 21.0876 102.646 20.9778 102.702 20.8514L103.842 18.5702V18.5206H103.33L102.64 19.9656H102.624L101.86 18.5206H101.331V18.5787L102.38 20.454L102.227 20.7646ZM111.846 18.9389H112.754V21.0171H111.495C111.535 20.9875 111.568 20.9482 111.593 20.8992C111.616 20.8502 111.634 20.7985 111.646 20.7431C111.659 20.6881 111.667 20.6355 111.672 20.5865L111.846 18.9389ZM110.735 21.0047V21.8494H111.185V21.4188C111.354 21.4188 111.516 21.4188 111.673 21.4188C111.829 21.4188 111.984 21.4188 112.136 21.4188C112.289 21.4188 112.443 21.4188 112.599 21.4188C112.755 21.4188 112.917 21.4188 113.085 21.4188V21.8494H113.531V21.0047H113.221V18.5206C113.081 18.5206 112.935 18.5206 112.784 18.5206C112.633 18.5206 112.48 18.5206 112.325 18.5206C112.17 18.5206 112.016 18.5206 111.866 18.5206C111.714 18.5206 111.568 18.5206 111.428 18.5206L111.189 20.5659C111.181 20.6376 111.171 20.7005 111.158 20.7549C111.145 20.8094 111.126 20.8556 111.101 20.8922C111.077 20.9294 111.042 20.9579 111 20.9763C110.957 20.9951 110.901 21.0047 110.834 21.0047H110.735ZM122.732 19.4481L122.699 20.3645V21.4145H123.174V18.5124H123.001L121.246 20.4595L121.279 19.5749V18.5206H120.799V21.4188H120.965L122.732 19.4481ZM130.414 21.3483V21.4188H130.93L131.62 20.4087H132.256V21.4188H132.739V18.5206H131.545C131.389 18.5212 131.247 18.5469 131.123 18.5971C131 18.6476 130.895 18.7166 130.808 18.8049C130.722 18.8932 130.656 18.9954 130.611 19.1106C130.565 19.2265 130.543 19.3502 130.542 19.4811C130.544 19.6172 130.57 19.7412 130.62 19.8537C130.669 19.9668 130.739 20.0642 130.828 20.1455C130.918 20.2278 131.023 20.2904 131.145 20.334L130.414 21.3483ZM131.55 20.011C131.443 20.0103 131.349 19.9871 131.268 19.9408C131.187 19.8945 131.123 19.8304 131.078 19.7488C131.033 19.668 131.009 19.5743 131.008 19.4687C131.009 19.3659 131.032 19.2749 131.078 19.1962C131.122 19.1176 131.186 19.0553 131.266 19.0111C131.347 18.9664 131.442 18.9437 131.55 18.9428H132.264V20.011H131.55Z" fill="#242726"/>
<path fill-rule="evenodd" clip-rule="evenodd" d="M146.658 18.6338H159.99V20.8593H146.658V18.6338ZM0.581055 18.6338H13.9127V20.8593H0.581055V18.6338Z" fill="#242726"/>
</svg>
