<svg width="21" height="26" viewBox="0 0 21 26" fill="none" xmlns="http://www.w3.org/2000/svg">
<path d="M15.9486 18.3038C15.9486 21.6106 12.9214 25.1428 9.82047 25.1428C6.7195 25.1428 3.76621 21.6106 3.76621 18.3038M15.9486 18.3038C15.9486 14.997 10.7065 11.6151 9.82047 11.6151M15.9486 18.3038C15.9486 18.3038 19.6402 14.0952 19.714 11.0139C19.714 6.5798 14.0289 4.70095 14.0289 4.70095M3.76621 18.3038C3.76621 14.997 8.93448 11.6151 9.82047 11.6151M3.76621 18.3038C3.76621 18.3038 -1.03292 12.517 1.77272 9.21019C4.57835 5.90341 11.2233 4.25003 11.2233 4.25003M9.82047 11.6151L12.6261 8.68411C13.1905 8.13039 13.6083 7.44046 13.8406 6.6784C14.073 5.91634 14.1123 5.10687 13.9551 4.32518C13.5121 2.74695 12.3307 1.09356 8.93445 0.868097C2.2157 0.492327 1.32971 9.88657 1.32971 9.88657" stroke="#415C52" stroke-width="0.7" stroke-linecap="round" stroke-linejoin="round"/>
</svg>
