<svg width="24" height="24" viewBox="0 0 24 24" fill="none" xmlns="http://www.w3.org/2000/svg">
<path d="M20.9277 3.84195L21.7743 4.68854C23.3135 6.22777 23.3135 8.76751 21.7743 10.3067L10.307 21.774C8.76775 23.3133 6.22801 23.3133 4.68877 21.774L3.8422 20.9275M20.9277 3.84195L3.8422 20.9275M20.9277 3.84195L18.1571 1.07132M3.8422 20.9275L1.07157 18.1568M5.61231 19.1573L2.84169 16.3867M7.30549 17.4642L4.53486 14.6936M8.99864 15.771L6.22801 13.0004M10.6918 14.0779L7.92116 11.3073M12.3849 12.3847L9.61433 9.61408M14.1251 10.6445L11.3075 7.92094M15.8482 8.92143L13.0776 6.1508M17.5414 7.22827L14.7708 4.45766M19.2346 5.53511L16.4639 2.76449" stroke="#415C52" stroke-width="0.7" stroke-miterlimit="10" stroke-linecap="round" stroke-linejoin="round"/>
</svg>
