<svg width="20" height="20" viewBox="0 0 20 20" fill="none" xmlns="http://www.w3.org/2000/svg">
<g id="Instagram Outline">
<path id="Vector" d="M2.05196 6.41654C2.09134 5.55591 2.2261 5.00085 2.40834 4.5297L2.41079 4.52319C2.59138 4.04375 2.87428 3.60942 3.23981 3.25043L3.24493 3.2454L3.24997 3.24027C3.60926 2.87427 4.04374 2.59165 4.52276 2.41154L4.53102 2.40838C5.0011 2.22557 5.55508 2.09131 6.41642 2.05194M2.05196 6.41654C2.01055 7.33608 2 7.62112 2 10.0053C2 12.39 2.00997 12.6744 2.05194 13.5941M2.05196 6.41654L2.05196 6.64849M2.41154 15.4878C2.59165 15.9668 2.87427 16.4013 3.24027 16.7606L3.24539 16.7656L3.25042 16.7707C3.60942 17.1362 4.04376 17.4192 4.52321 17.5998L4.53037 17.6025C5.00088 17.7849 5.55512 17.9192 6.41642 17.9586M2.41154 15.4878L2.40838 15.4795C2.22557 15.0094 2.09131 14.4555 2.05194 13.5941M2.41154 15.4878L2.40074 15.4309M2.05194 13.5941L2.06604 13.6684M2.05194 13.5941L2.05194 13.3616M2.40074 15.4309L2.06604 13.6684M2.40074 15.4309C2.25859 15.0554 2.11221 14.5314 2.06604 13.6684M2.40074 15.4309C2.40573 15.4441 2.41071 15.4571 2.41568 15.4699C2.59595 15.9559 2.88159 16.3959 3.25206 16.7584C3.61441 17.1288 4.05429 17.4144 4.54012 17.5947C4.93 17.7466 5.47937 17.9053 6.41629 17.9482C7.36179 17.9912 7.65391 18 10.0053 18C12.3566 18 12.649 17.9912 13.5945 17.9482C14.5326 17.9052 15.0813 17.7456 15.4698 17.5949C15.9559 17.4147 16.396 17.129 16.7585 16.7584C17.1289 16.3961 17.4144 15.9562 17.5947 15.4704C17.7466 15.0805 17.9053 14.5312 17.9482 13.5943C17.9912 12.6488 18 12.356 18 10.0053C18 7.6545 17.9912 7.36155 17.9482 6.41604C17.905 5.47307 17.7439 4.92352 17.5925 4.53467C17.3946 4.02377 17.1437 3.63737 16.7579 3.2516C16.3729 2.86736 15.9875 2.61625 15.4763 2.41814C15.086 2.26557 14.5361 2.10552 13.5945 2.06237C13.5126 2.05864 13.4356 2.05517 13.3618 2.05194M2.06604 13.6684C2.06473 13.644 2.06351 13.6194 2.06237 13.5945C2.05864 13.5126 2.05517 13.4355 2.05194 13.3616M6.41642 2.05194C7.33618 2.00997 7.62112 2 10.0053 2C12.3894 2 12.6742 2.01054 13.5938 2.05194M6.41642 2.05194L6.64896 2.05194M13.5938 2.05194L13.3618 2.05194M13.5938 2.05194C14.4545 2.09131 15.0097 2.22605 15.4809 2.40831L15.4874 2.41079C15.9668 2.59138 16.4011 2.87428 16.7601 3.23981L16.7651 3.24488L16.7702 3.24987C17.1358 3.60889 17.4186 4.04333 17.5991 4.52291L17.6022 4.53102C17.785 5.0011 17.9192 5.55508 17.9586 6.41642M6.64896 2.05194L13.3618 2.05194M6.64896 2.05194C7.4278 2.01788 7.85826 2.01055 10.0053 2.01055C12.1525 2.01055 12.5828 2.01788 13.3618 2.05194M6.64896 2.05194C6.57505 2.05517 6.498 2.05864 6.41604 2.06237C5.47795 2.10536 4.92923 2.26496 4.54073 2.41564C4.0528 2.59652 3.61121 2.88367 3.24796 3.25631C2.86579 3.64005 2.61564 4.0246 2.41817 4.53423C2.26559 4.92447 2.10551 5.47464 2.06236 6.41629C2.05864 6.49798 2.05518 6.5748 2.05196 6.64849M17.9586 13.5941C17.9192 14.4554 17.785 15.0097 17.6025 15.4802L17.5998 15.4874C17.4192 15.9668 17.1363 16.4011 16.7707 16.7601L16.7656 16.7652L16.7606 16.7703C16.4013 17.1363 15.9668 17.4189 15.4878 17.599L15.4795 17.6022C15.0094 17.785 14.4555 17.9192 13.5941 17.9586M2.05194 13.3616C2.01788 12.5828 2.01055 12.1523 2.01055 10.0053C2.01055 7.85761 2.01788 7.42774 2.05196 6.64849M2.05194 13.3616L2.05196 6.64849M8.58148 13.4426C9.03289 13.6296 9.51669 13.7258 10.0053 13.7258C10.992 13.7258 11.9384 13.3338 12.6361 12.6361C13.3338 11.9384 13.7258 10.992 13.7258 10.0053C13.7258 9.01852 13.3338 8.07218 12.6361 7.37444C11.9384 6.67671 10.992 6.28472 10.0053 6.28472C9.51669 6.28472 9.03288 6.38095 8.58148 6.56793C8.13009 6.75491 7.71994 7.02896 7.37445 7.37444C7.02896 7.71993 6.75491 8.13008 6.56793 8.58148C6.38096 9.03288 6.28472 9.51668 6.28472 10.0053C6.28472 10.4939 6.38096 10.9777 6.56793 11.4291C6.75491 11.8805 7.02896 12.2906 7.37445 12.6361C7.71994 12.9816 8.13009 13.2556 8.58148 13.4426ZM7.36616 7.36616C8.0661 6.66622 9.01542 6.273 10.0053 6.273C10.9951 6.273 11.9445 6.66622 12.6444 7.36616C13.3443 8.06609 13.7376 9.01541 13.7376 10.0053C13.7376 10.9951 13.3443 11.9445 12.6444 12.6444C11.9445 13.3443 10.9951 13.7376 10.0053 13.7376C9.01542 13.7376 8.0661 13.3443 7.36616 12.6444C6.66622 11.9445 6.273 10.9951 6.273 10.0053C6.273 9.01541 6.66622 8.06609 7.36616 7.36616ZM15.8392 5.40404C15.8392 5.68735 15.7266 5.95907 15.5263 6.1594C15.326 6.35974 15.0542 6.47229 14.7709 6.47229C14.4876 6.47229 14.2159 6.35974 14.0156 6.1594C13.8152 5.95907 13.7027 5.68735 13.7027 5.40404C13.7027 5.12072 13.8152 4.84901 14.0156 4.64867C14.2159 4.44833 14.4876 4.33579 14.7709 4.33579C15.0542 4.33579 15.326 4.44833 15.5263 4.64867C15.7266 4.84901 15.8392 5.12072 15.8392 5.40404Z" stroke="#415C52" stroke-linejoin="round"/>
</g>
</svg>
