<svg width="24" height="24" viewBox="0 0 24 24" fill="none" xmlns="http://www.w3.org/2000/svg">
<path d="M20.4303 9.9425C20.5187 10.2073 20.5187 10.5604 20.5187 10.8252C20.5187 12.5023 19.9 14.2677 18.574 15.5034L10.5298 23.5358M1.07129 14.0911L9.11546 6.05868C10.6182 4.55812 12.6294 3.96218 14.5742 4.22699M15.8337 13.6498C16.4525 13.5615 16.9828 13.2967 17.4248 12.8554L22.5519 7.73579C23.8778 6.50004 23.8778 4.38159 22.4635 3.05757L21.4027 1.99835C20.1651 0.762594 18.0436 0.762594 16.8061 1.99835L11.679 7.11792C11.237 7.55926 10.9718 8.17713 10.8834 8.79501M15.8337 13.6498C14.8613 13.8263 13.8889 13.5615 13.1818 12.8554L11.679 11.3548C10.9718 10.6486 10.7066 9.76596 10.8834 8.79501M15.8337 13.6498C15.9221 13.385 15.965 13.4683 16.0105 12.9436C16.2499 10.1787 14.3724 8.66082 11.9999 8.66082C11.6463 8.66082 11.1486 8.70674 10.8834 8.79501" stroke="#415C52" stroke-width="0.7" stroke-miterlimit="10" stroke-linecap="round" stroke-linejoin="round"/>
</svg>
