<?xml version="1.0" encoding="UTF-8" standalone="no"?>
<svg
   xmlns:dc="http://purl.org/dc/elements/1.1/"
   xmlns:cc="http://creativecommons.org/ns#"
   xmlns:rdf="http://www.w3.org/1999/02/22-rdf-syntax-ns#"
   xmlns:svg="http://www.w3.org/2000/svg"
   xmlns="http://www.w3.org/2000/svg"
   viewBox="0 0 22.666677 22.666668"
   height="22.666668"
   width="22.666677"
   xml:space="preserve"
   id="svg2"
   version="1.1"><metadata
     id="metadata8"><rdf:RDF><cc:Work
         rdf:about=""><dc:format>image/svg+xml</dc:format><dc:type
           rdf:resource="http://purl.org/dc/dcmitype/StillImage" /></cc:Work></rdf:RDF></metadata><defs
     id="defs6" /><g
     transform="matrix(1.3333333,0,0,-1.3333333,0,22.666667)"
     id="g10"><g
       transform="translate(0.500008,-0.528961)"
       id="g12"><path
         id="path14"
         style="fill:#415c52;fill-opacity:1;fill-rule:nonzero;stroke:none"
         d="M 0,1.028961 -0.481936,1.162145 C -0.529554,0.989834 -0.481553,0.805208 -0.356039,0.67791 -0.230524,0.550611 -0.046595,0.500011 0.126371,0.545195 Z M 1.134341,5.13366 1.616277,5.000476 C 1.652012,5.129785 1.634284,5.268029 1.567078,5.384137 Z m -1.061219,3.959586 0.500002,-6.44e-4 -3e-6,0.00157 -0.499999,-9.22e-4 z m 13.593577,5.612998 -0.352809,-0.354299 9.79e-4,-9.7e-4 z m 2.333258,-5.612998 -0.5,0.00165 V 9.093246 Z M 4.228733,2.133601 4.46826,2.572494 C 4.356462,2.633509 4.225592,2.649558 4.102363,2.617368 Z m 1.814756,10.282067 -0.457582,-0.201594 0.00193,-0.0043 0.455652,0.205865 z M 5.59811,12.754574 5.565129,12.255663 c 0.010979,-7.25e-4 0.021978,-0.0011 0.032981,-0.0011 v 0.5 z m -0.923522,-0.242008 0.366736,-0.339863 8.26e-4,8.96e-4 z M 4.788069,8.811059 5.187947,9.111225 5.187239,9.112163 Z M 8.190619,5.819036 8.007184,5.353899 8.007926,5.353608 Z m 2.38976,-0.49158 -0.05483,0.496986 -5.66e-4,-6.3e-5 0.05539,-0.496923 z m 1.344687,0.943457 0.469975,-0.170722 0.0016,0.00453 -0.471573,0.16619 z m 0.113482,0.943455 0.428899,0.256996 -6.68e-4,0.00111 -0.428231,-0.258105 z m -0.380805,0.233974 0.237689,0.439891 c -0.0075,0.00408 -0.0152,0.00796 -0.02294,0.011644 z m -1.360829,0.645199 0.164297,0.472239 -0.0014,4.97e-4 -0.162853,-0.472736 z M 9.851059,7.996643 9.435691,8.275151 9.430353,8.26684 Z M 9.21955,7.222404 8.854928,7.56453 C 8.851487,7.560863 8.848102,7.557143 8.844772,7.553374 Z M 8.78984,7.174191 9.01267,7.621873 9.004997,7.62553 Z M 7.185904,8.157825 7.518183,8.531443 7.517654,8.531912 Z M 6.075777,9.528578 5.639506,9.284307 C 5.64365,9.276907 5.64798,9.269614 5.652494,9.262435 Z M 6.165043,9.932241 6.503422,9.564138 c 0.00456,0.00419 0.00903,0.00846 0.013427,0.01281 z m 0.300085,0.34647 0.37879,-0.326379 0.00145,0.0017 -0.380245,0.324675 z m 0.202273,0.33087 0.435012,-0.246504 c 0.00424,0.0075 0.00828,0.01506 0.012124,0.02274 l -0.447136,0.22376 z m -0.016144,0.34647 0.446807,0.224419 c -0.00282,0.0056 -0.00574,0.01116 -0.00877,0.01666 z M 0.481936,0.895777 1.616277,5.000476 0.652406,5.266844 -0.481936,1.162145 Z m 1.085142,4.48836 C 0.914209,6.512068 0.571445,7.791136 0.573122,9.092602 l -1,0.00129 C -0.428781,7.615867 -0.039501,6.163556 0.701604,4.883183 Z M 0.573121,9.094168 c -0.007558,4.100494 3.338636,7.434793 7.45511,7.434793 v 1 c -4.66482,0 -8.463694,-3.778492 -8.455108,-8.436638 l 0.999998,0.00184 z m 7.45511,7.434793 c 1.999528,0 3.873324,-0.770615 5.28566,-2.177015 l 0.705616,0.708595 c -1.600862,1.594132 -3.728835,2.46842 -5.991276,2.46842 z m 5.286638,-2.177986 c 0.69559,-0.688858 1.246819,-1.508158 1.621858,-2.410368 l 0.923397,0.383846 c -0.425996,1.024797 -1.051992,1.955098 -1.841595,2.737059 z m 1.621858,-2.410368 c 0.375035,-0.902204 0.566456,-1.86945 0.563233,-2.845711 l 0.999994,-0.0033 c 0.0037,1.109207 -0.213833,2.208056 -0.63983,3.232858 l -0.923397,-0.383846 z m 0.56323,-2.847361 c 0,-4.092519 -3.346519,-7.427209 -7.463655,-7.427209 v -1 c 4.665108,0 8.463654,3.778103 8.463654,8.427209 z M 8.036302,1.666037 c -1.253636,0 -2.475512,0.310206 -3.568042,0.906457 L 3.989206,1.694709 C 5.229935,1.017578 6.61671,0.666037 8.036302,0.666037 Z M 4.102363,2.617368 -0.126371,1.512728 0.126371,0.545195 4.355104,1.649835 Z m 2.398689,9.999884 c -0.097998,0.222441 -0.233897,0.411059 -0.435254,0.526093 -0.199981,0.114248 -0.393705,0.11123 -0.467688,0.11123 v -1.000001 c 0.015627,0 0.023257,-1.51e-4 0.028519,-4.06e-4 0.00462,-2.24e-4 0.00367,-3.83e-4 -7.48e-4,3.28e-4 -0.00472,7.59e-4 -0.013025,0.0024 -0.023553,0.006 -0.010729,0.0036 -0.021862,0.0085 -0.032581,0.01459 -0.010682,0.0061 -0.018677,0.01215 -0.023954,0.01676 -0.00512,0.0045 -0.00641,0.0065 -0.00444,0.004 0.00454,-0.0057 0.021106,-0.02848 0.044579,-0.08176 l 0.915125,0.403169 z m -0.869961,0.636234 c -0.141104,0.0093 -0.288435,0.0091 -0.422332,0.0091 v -1.000001 c 0.141497,0 0.254367,-2.03e-4 0.35637,-0.0069 l 0.065962,0.997823 z m -0.422332,0.0091 c -0.24165,0 -0.603995,-0.08822 -0.901734,-0.411078 L 5.04215,12.173599 c 0.074521,0.08081 0.149958,0.08901 0.166609,0.08901 V 13.26261 Z M 4.307853,12.852427 C 4.116896,12.64637 3.478029,12.044176 3.478029,10.859627 h 1 c 0,0.766645 0.381044,1.116417 0.563294,1.313078 z m -0.829824,-1.9928 c 0,-0.600831 0.216307,-1.162756 0.422909,-1.568707 C 4.11114,8.877896 4.33429,8.582351 4.388899,8.509956 l 0.79834,0.602207 C 5.144511,9.168808 4.962641,9.409512 4.792158,9.744492 4.618074,10.086548 4.478029,10.484386 4.478029,10.859627 Z M 4.388193,8.510895 C 4.385202,8.514879 4.387629,8.511682 4.406167,8.484344 4.420823,8.462731 4.441562,8.432026 4.466606,8.395494 4.517132,8.321792 4.5864,8.222573 4.673313,8.104708 4.846878,7.86933 5.091102,7.559181 5.399232,7.226471 6.010512,6.566431 6.896995,5.79172 8.007184,5.353899 L 8.374053,6.284172 C 6.511289,7.018784 5.3225,8.931973 5.187946,9.111224 Z M 8.007926,5.353608 c 0.857761,-0.336694 1.40724,-0.48618 1.806755,-0.539231 0.416947,-0.055366 0.66786,-9.24e-4 0.821093,0.016157 L 10.524986,5.824379 C 10.313558,5.80081 10.211918,5.770407 9.946314,5.805676 9.663278,5.843259 9.200206,5.959888 8.373311,6.284464 Z m 2.627281,-0.523136 c 0.290527,0.032051 0.659719,0.195143 0.959793,0.387115 0.292057,0.186844 0.656651,0.487935 0.80002,0.882612 L 11.455112,6.441627 C 11.428496,6.368357 11.302839,6.217809 11.056096,6.059955 10.81737,5.90723 10.599212,5.832567 10.525552,5.824441 Z m 1.761432,1.274251 c 0.09558,0.271217 0.144652,0.528717 0.162281,0.73791 0.0088,0.104119 0.01041,0.203887 0.0037,0.292709 -0.0034,0.044178 -0.0093,0.092677 -0.02001,0.141417 -0.009,0.041114 -0.02857,0.11691 -0.07512,0.194604 L 11.60965,6.957374 c -0.03445,0.057487 -0.04339,0.103002 -0.04378,0.104801 -0.0021,0.00943 -0.0013,0.00957 -4.12e-4,-0.00259 0.0018,-0.023867 0.0024,-0.068766 -0.003,-0.132979 -0.01074,-0.127468 -0.04263,-0.301283 -0.108959,-0.489504 l 0.943146,-0.332379 z m 0.07014,1.36775 c -0.100993,0.167563 -0.261049,0.25403 -0.324817,0.288761 -0.04165,0.022687 -0.08772,0.045597 -0.125417,0.064506 -0.04063,0.020379 -0.0798,0.040168 -0.121113,0.062493 L 11.420055,7.008451 c 0.05578,-0.030141 0.106711,-0.055789 0.148123,-0.076561 0.04434,-0.022244 0.07226,-0.036203 0.09548,-0.048849 0.02341,-0.012751 0.02518,-0.015246 0.01778,-0.00957 -0.008,0.00614 -0.04071,0.032327 -0.07112,0.08279 L 12.466781,7.47247 Z M 11.872491,7.899877 C 11.771674,7.947824 11.489118,8.087562 11.188948,8.232863 10.914586,8.365672 10.58949,8.521148 10.46121,8.565778 L 10.132618,7.621305 c -4.19e-4,1.46e-4 0.005,-0.00178 0.01847,-0.0073 0.01258,-0.00515 0.02878,-0.012043 0.04879,-0.020806 0.04007,-0.017553 0.09041,-0.040446 0.14894,-0.06765 0.116887,-0.054328 0.259394,-0.122572 0.404433,-0.192781 0.283026,-0.137003 0.58782,-0.287487 0.689752,-0.335965 l 0.429494,0.90307 z m -1.412724,0.6664 C 10.384491,8.592209 10.198817,8.661302 9.996709,8.638559 9.7366,8.609289 9.555481,8.45363 9.435772,8.275097 l 0.830574,-0.556909 c 0.0084,0.012533 -1.86e-4,-0.00437 -0.0316,-0.026227 -0.0363,-0.025258 -0.08136,-0.042082 -0.126216,-0.04713 -0.03826,-0.0043 -0.0598,0.00192 -0.05082,-8.8e-5 0.01059,-0.00237 0.03049,-0.00814 0.07635,-0.023936 z M 9.430353,8.26684 C 9.326591,8.105278 8.971976,7.689275 8.854928,7.56453 L 9.584172,6.880277 c 0.125109,0.133335 0.532105,0.604067 0.687594,0.846169 z M 8.844772,7.553374 c -0.00353,-0.004 0.00623,0.00819 0.030853,0.022874 C 8.90294,7.592536 8.938186,7.605669 8.977002,7.6102 9.013638,7.61447 9.038164,7.609314 9.044087,7.60784 9.048577,7.60672 9.039347,7.608519 9.012637,7.621811 L 8.567042,6.726574 C 8.701318,6.659739 8.884249,6.592587 9.092927,6.616941 9.320921,6.643551 9.484109,6.766625 9.594328,6.891433 Z M 9.004997,7.62553 C 8.766178,7.739378 8.212526,7.913924 7.518183,8.531443 L 6.853624,7.784206 C 7.682498,7.047043 8.408956,6.801855 8.574681,6.722852 Z M 7.517654,8.531912 C 6.986277,9.003151 6.622994,9.597609 6.49906,9.79472 L 5.652494,9.262435 C 5.771667,9.072899 6.202282,8.361833 6.854153,7.783737 Z M 6.512047,9.772848 c -0.00483,0.00863 0.00615,-0.00782 0.01101,-0.045242 0.0054,-0.041525 4.51e-4,-0.08744 -0.015009,-0.129685 -0.013889,-0.03795 -0.031093,-0.058803 -0.0329,-0.060976 -5.1e-4,-6.14e-4 0.00445,0.00529 0.028274,0.027193 L 5.826664,10.300344 C 5.779335,10.256837 5.638976,10.132915 5.568959,9.941597 5.483797,9.708889 5.530437,9.479105 5.639506,9.284307 Z m 0.0048,-0.1959 C 6.62403,9.683081 6.774821,9.872149 6.843913,9.952335 l -0.757574,0.65275 C 5.960757,10.459335 5.884586,10.358181 5.813237,10.287533 L 6.516849,9.576948 Z m 0.328524,0.377088 c 0.138303,0.161975 0.219076,0.342046 0.25704,0.409041 l -0.870025,0.49301 C 6.20995,10.81649 6.191124,10.78084 6.17597,10.752005 6.159816,10.721269 6.149503,10.701525 6.138814,10.68242 6.121027,10.650625 6.106783,10.629034 6.084883,10.603386 l 0.76049,-0.64935 z m 0.269164,0.431785 c 0.16583,0.331375 0.065014,0.632411 -0.016473,0.794649 L 6.20445,10.731634 c 0.00783,-0.01558 0.00217,-0.0099 -8.2e-5,0.01189 -0.00125,0.01203 -0.0013,0.02767 0.00171,0.0453 0.00306,0.01791 0.00849,0.03313 0.014187,0.04452 l 0.894273,-0.447521 z m -0.025238,0.811311 c 0.00527,-0.0096 -0.013611,0.03151 -0.066154,0.159186 -0.044707,0.108636 -0.101698,0.2495 -0.163849,0.402673 -0.122043,0.300782 -0.265948,0.654032 -0.360153,0.862541 L 5.587837,12.209803 c 0.084326,-0.186646 0.219852,-0.518772 0.344833,-0.826794 0.061361,-0.15123 0.119781,-0.295624 0.16572,-0.407253 0.038102,-0.09259 0.085105,-0.206782 0.114825,-0.260784 l 0.876084,0.48216 z" /></g></g></svg>